<svg width="20" height="20" viewBox="0 0 24 24" fill="none" xmlns="http://www.w3.org/2000/svg">
<path d="M10.1998 9.61843C11.1939 9.61843 11.9997 8.81357 11.9997 7.82073C11.9997 6.82789 11.1939 6.02303 10.1998 6.02303C9.20569 6.02303 8.39983 6.82789 8.39983 7.82073C8.39983 8.81357 9.20569 9.61843 10.1998 9.61843Z" fill="#ABACB2"/>
<path d="M7.79974 15.6107C8.79383 15.6107 9.59969 14.8059 9.59969 13.813C9.59969 12.8202 8.79383 12.0153 7.79974 12.0153C6.80566 12.0153 5.99979 12.8202 5.99979 13.813C5.99979 14.8059 6.80566 15.6107 7.79974 15.6107Z" fill="#ABACB2"/>
<path d="M15.5996 16.8093C16.2623 16.8093 16.7996 16.2728 16.7996 15.6109C16.7996 14.949 16.2623 14.4124 15.5996 14.4124C14.9369 14.4124 14.3996 14.949 14.3996 15.6109C14.3996 16.2728 14.9369 16.8093 15.5996 16.8093Z" fill="#ABACB2"/>
<path d="M23.9393 10.8049C21.7914 10.7689 19.4995 8.46784 20.7234 5.74732C17.1595 6.94579 13.7876 3.84175 14.4956 0.282298C6.11983 -1.47945 0 5.31587 0 12.0153C0 18.6309 5.37585 24 11.9997 24C19.0675 24 24.6473 17.9118 23.9393 10.8049ZM11.9997 21.6031C6.70781 21.6031 2.39993 17.3006 2.39993 12.0153C2.39993 8.04838 5.67584 2.21183 12.0957 2.40359C12.5996 5.4477 15.0236 7.86861 18.0835 8.32403C18.1675 8.75547 18.7075 11.3801 21.5874 12.6745C21.2394 17.8399 16.8715 21.6031 11.9997 21.6031Z" fill="#ABACB2"/>
</svg>
