<svg width="20" height="20" viewBox="0 0 24 24" fill="none" xmlns="http://www.w3.org/2000/svg">
<path d="M22.815 16.9774L19.7486 15.4639C18.9637 15.0794 18.3036 14.4857 17.8431 13.7499C17.3826 13.0141 17.14 12.1657 17.1428 11.3007V8.19214C17.1428 7.85552 17.0074 7.53268 16.7663 7.29465C16.5252 7.05662 16.1981 6.9229 15.8571 6.9229C14.6073 6.9215 13.409 6.43073 12.5252 5.55826C11.6414 4.68579 11.1443 3.50286 11.1429 2.269C11.1428 2.03275 11.076 1.80119 10.9499 1.6004C10.8237 1.39961 10.6434 1.23755 10.429 1.13247C10.2147 1.02738 9.97487 0.983442 9.7366 1.00559C9.49833 1.02774 9.27106 1.1151 9.08035 1.25784L0.830357 7.43589L0.798214 7.46021C0.564723 7.64674 0.373563 7.87965 0.237137 8.14382C0.100712 8.40799 0.0220674 8.69752 0.00630692 8.99363C-0.00945353 9.28975 0.0380219 9.58582 0.145653 9.86265C0.253284 10.1395 0.418667 10.3909 0.631071 10.6005L12.8111 22.6287C12.9306 22.7466 13.0724 22.84 13.2285 22.9037C13.3846 22.9674 13.5518 23.0001 13.7207 23H21.8571C22.4255 23 22.9705 22.7771 23.3724 22.3804C23.7742 21.9837 24 21.4456 24 20.8846V18.8686C24.0013 18.4755 23.8909 18.09 23.6815 17.7557C23.472 17.4214 23.1718 17.1518 22.815 16.9774ZM21.4286 20.4615H14.25L2.79428 9.14937L4.17214 8.11705L8.58642 12.4748C8.82796 12.7132 9.15555 12.8472 9.49714 12.8472C9.83872 12.8472 10.1663 12.7132 10.4079 12.4748C10.6494 12.2363 10.7851 11.9129 10.7851 11.5757C10.7851 11.2385 10.6494 10.9151 10.4079 10.6767L6.24107 6.56857L8.94535 4.54412C9.36173 5.76879 10.1034 6.86069 11.093 7.7059C12.0826 8.55111 13.2839 9.11864 14.5714 9.34927V11.3007C14.5667 12.6374 14.9416 13.9486 15.6535 15.0857C16.3653 16.2227 17.3857 17.1401 18.5989 17.7337L21.4286 19.1309V20.4615ZM3.8025 19.1923H1.28571C0.944721 19.1923 0.617695 19.0585 0.376577 18.8205C0.135459 18.5825 0 18.2596 0 17.923C0 17.5864 0.135459 17.2636 0.376577 17.0255C0.617695 16.7875 0.944721 16.6538 1.28571 16.6538H3.8025C4.14349 16.6538 4.47052 16.7875 4.71164 17.0255C4.95275 17.2636 5.08821 17.5864 5.08821 17.923C5.08821 18.2596 4.95275 18.5825 4.71164 18.8205C4.47052 19.0585 4.14349 19.1923 3.8025 19.1923ZM8.94535 21.7308C8.94535 22.0674 8.80989 22.3902 8.56878 22.6282C8.32766 22.8663 8.00063 23 7.65964 23H3C2.65901 23 2.33198 22.8663 2.09086 22.6282C1.84974 22.3902 1.71428 22.0674 1.71428 21.7308C1.71428 21.3941 1.84974 21.0713 2.09086 20.8333C2.33198 20.5952 2.65901 20.4615 3 20.4615H7.65964C8.00063 20.4615 8.32766 20.5952 8.56878 20.8333C8.80989 21.0713 8.94535 21.3941 8.94535 21.7308Z" fill="#ABACB2"/>
</svg>
