<svg width="24" height="24" viewBox="0 0 24 24" fill="white" xmlns="http://www.w3.org/2000/svg">
	<path d="M12 .5C5.7.5.5 5.7.5 12c0 5.1 3.3 9.4 7.9 10.9.6.1.8-.3.8-.6v-2.2c-3.2.7-3.9-1.5-3.9-1.5-.5-1.2-1.2-1.5-1.2-1.5-1-.7.1-.7.1-.7 1.1.1 1.7 1.1 1.7 1.1 1 .1.6 2.3 2.8 2.3.4-.7.8-1.1 1.2-1.3-2.6-.3-5.4-1.3-5.4-5.9 0-1.3.5-2.3 1.2-3.1-.1-.3-.5-1.6.1-3.3 0 0 1-.3 3.3 1.2 1-.3 2.1-.4 3.2-.4s2.2.1 3.2.4c2.3-1.5 3.3-1.2 3.3-1.2.6 1.7.2 3 .1 3.3.8.8 1.2 1.8 1.2 3.1 0 4.6-2.8 5.6-5.4 5.9.4.3.8 1 .8 2v3c0 .3.2.7.8.6 4.6-1.5 7.9-5.8 7.9-10.9C23.5 5.7 18.3.5 12 .5z"/>
</svg>
