<svg width="20" height="20" viewBox="0 0 24 24" fill="none" xmlns="http://www.w3.org/2000/svg">
<path fill-rule="evenodd" clip-rule="evenodd" d="M24 12C24 18.6276 18.6276 24 12 24C5.3724 24 0 18.6276 0 12C0 5.3724 5.3724 0 12 0C18.6276 0 24 5.3724 24 12ZM12 21.6C14.5461 21.6 16.9879 20.5886 18.7882 18.7882C20.5886 16.9879 21.6 14.5461 21.6 12C21.6 9.45392 20.5886 7.01212 18.7882 5.21177C16.9879 3.41143 14.5461 2.4 12 2.4C9.45392 2.4 7.01212 3.41143 5.21177 5.21177C3.41143 7.01212 2.4 9.45392 2.4 12C2.4 14.5461 3.41143 16.9879 5.21177 18.7882C7.01212 20.5886 9.45392 21.6 12 21.6Z" fill="#ABACB2"/>
<path fill-rule="evenodd" clip-rule="evenodd" d="M12 10.8001C12.3183 10.8001 12.6235 10.9265 12.8486 11.1516C13.0736 11.3766 13.2 11.6818 13.2 12.0001V16.8001C13.2 17.1183 13.0736 17.4236 12.8486 17.6486C12.6235 17.8737 12.3183 18.0001 12 18.0001C11.6818 18.0001 11.3765 17.8737 11.1515 17.6486C10.9265 17.4236 10.8 17.1183 10.8 16.8001V12.0001C10.8 11.6818 10.9265 11.3766 11.1515 11.1516C11.3765 10.9265 11.6818 10.8001 12 10.8001Z" fill="#ABACB2"/>
<path d="M13.2 8.39992C13.2 8.71818 13.0736 9.0234 12.8486 9.24844C12.6235 9.47349 12.3183 9.59992 12 9.59992C11.6818 9.59992 11.3765 9.47349 11.1515 9.24844C10.9265 9.0234 10.8 8.71818 10.8 8.39992C10.8 8.08166 10.9265 7.77643 11.1515 7.55139C11.3765 7.32634 11.6818 7.19992 12 7.19992C12.3183 7.19992 12.6235 7.32634 12.8486 7.55139C13.0736 7.77643 13.2 8.08166 13.2 8.39992Z" fill="#ABACB2"/>
</svg>
