<svg width="20" height="20" viewBox="0 0 24 24" fill="none" xmlns="http://www.w3.org/2000/svg">
<path d="M13.2 23L15.6 21.7778L18 23V14.4444H13.2M18 8.33333V5.88889L15.6 7.11111L13.2 5.88889V8.33333L10.8 9.55556L13.2 10.7778V13.2222L15.6 12L18 13.2222V10.7778L20.4 9.55556M21.6 1H2.4C1.76348 1 1.15303 1.25754 0.702944 1.71596C0.252856 2.17438 0 2.79614 0 3.44444V15.6667C0 16.315 0.252856 16.9367 0.702944 17.3951C1.15303 17.8536 1.76348 18.1111 2.4 18.1111H10.8V15.6667H2.4V3.44444H21.6V15.6667H20.4V18.1111H21.6C22.2365 18.1111 22.847 17.8536 23.2971 17.3951C23.7471 16.9367 24 16.315 24 15.6667V3.44444C24 2.79614 23.7471 2.17438 23.2971 1.71596C22.847 1.25754 22.2365 1 21.6 1ZM10.8 7.11111H3.6V4.66667H10.8M8.4 10.7778H3.6V8.33333H8.4M10.8 14.4444H3.6V12H10.8V14.4444Z" fill="#ABACB2"/>
</svg>
