<svg width="20" height="20" viewBox="0 0 24 24" fill="none" xmlns="http://www.w3.org/2000/svg">
<path d="M0 13.3333C0 12.4129 0.767512 11.6667 1.71429 11.6667C2.66106 11.6667 3.42857 12.4129 3.42857 13.3333V21.3333C3.42857 22.2538 2.66106 23 1.71429 23C0.767512 23 0 22.2538 0 21.3333V13.3333Z" fill="#ABACB2"/>
<path d="M6.85714 9.33333C6.85714 8.41286 7.62465 7.66667 8.57143 7.66667C9.5182 7.66667 10.2857 8.41286 10.2857 9.33333V21.3333C10.2857 22.2538 9.5182 23 8.57143 23C7.62465 23 6.85714 22.2538 6.85714 21.3333V9.33333Z" fill="#ABACB2"/>
<path d="M13.7143 13.3333C13.7143 12.4129 14.4818 11.6667 15.4286 11.6667C16.3753 11.6667 17.1429 12.4129 17.1429 13.3333V21.3333C17.1429 22.2538 16.3753 23 15.4286 23C14.4818 23 13.7143 22.2538 13.7143 21.3333V13.3333Z" fill="#ABACB2"/>
<path d="M20.5714 2.66667C20.5714 1.74619 21.3389 1 22.2857 1C23.2325 1 24 1.74619 24 2.66667V21.3333C24 22.2538 23.2325 23 22.2857 23C21.3389 23 20.5714 22.2538 20.5714 21.3333V2.66667Z" fill="#ABACB2"/>
</svg>
