<svg width="24" height="24" viewBox="0 0 24 24" fill="none" xmlns="http://www.w3.org/2000/svg">
<path d="M2.30762 1.0498H10.0879C10.4218 1.04988 10.7424 1.18281 10.9785 1.41895C11.2147 1.65511 11.3476 1.97561 11.3477 2.30957C11.3477 2.64352 11.2146 2.96401 10.9785 3.2002C10.7424 3.43633 10.4218 3.56926 10.0879 3.56934H2.64453V21.3564H20.4316V13.9131C20.4316 13.5791 20.5646 13.2587 20.8008 13.0225C21.037 12.7863 21.3574 12.6533 21.6914 12.6533C22.0254 12.6533 22.3458 12.7863 22.582 13.0225C22.8182 13.2586 22.9512 13.5791 22.9512 13.9131V21.6924C22.9512 22.2711 22.7207 22.8261 22.3115 23.2354C21.9023 23.6446 21.3473 23.8749 20.7686 23.875H2.30762C1.72876 23.875 1.17396 23.6446 0.764648 23.2354C0.355342 22.8261 0.125 22.2712 0.125 21.6924V3.23242C0.125077 2.6537 0.355403 2.09868 0.764648 1.68945C1.17394 1.28028 1.72885 1.0498 2.30762 1.0498ZM18.9209 0.125C19.0867 0.125 19.2512 0.15811 19.4043 0.22168C19.5573 0.285237 19.6966 0.377805 19.8135 0.495117L23.5059 4.1875C23.6229 4.30446 23.7159 4.44381 23.7793 4.59668C23.8426 4.74948 23.875 4.91372 23.875 5.0791C23.8749 5.2443 23.8425 5.40791 23.7793 5.56055C23.7159 5.71338 23.6229 5.85279 23.5059 5.96973L12.4287 17.0459C12.3118 17.1626 12.1732 17.2552 12.0205 17.3184C11.8676 17.3816 11.7035 17.4142 11.5381 17.4141H7.8457C7.51168 17.414 7.19127 17.2811 6.95508 17.0449C6.71897 16.8087 6.58594 16.4883 6.58594 16.1543V12.4619C6.58531 12.17 6.68643 11.8884 6.86914 11.6641L6.95215 11.5713L18.0283 0.495117H18.0293C18.1462 0.377875 18.2855 0.285182 18.4385 0.22168C18.5915 0.158195 18.7553 0.125022 18.9209 0.125ZM15.6035 6.49023L9.1416 12.9512L9.10547 12.9873V14.8955H11.0127L17.5986 8.30957L17.5107 8.2207L15.6914 6.40137L15.6035 6.49023ZM18.834 3.25977L17.5645 4.52832L17.4766 4.61719L17.5645 4.70605L19.2949 6.43652L19.3838 6.52441L20.7412 5.16699L20.8301 5.0791L18.9219 3.1709L18.834 3.25977Z" fill="#ABACB2" stroke="#28282D" stroke-width="0.25"/>
</svg>
