<svg width="20" height="20" viewBox="0 0 24 24" fill="none" xmlns="http://www.w3.org/2000/svg">
<path d="M23.6541 8.21057L18.8532 3.35686C18.7413 3.24372 18.6085 3.15398 18.4623 3.09275C18.3161 3.03152 18.1593 3 18.0011 3C17.6815 3 17.3749 3.12837 17.1489 3.35686C16.9229 3.58535 16.796 3.89526 16.796 4.21839C16.796 4.54153 16.9229 4.85143 17.1489 5.07993L19.9094 7.85868H5.99891C5.68059 7.85868 5.37531 7.98652 5.15023 8.21408C4.92515 8.44165 4.79869 8.75029 4.79869 9.07211C4.79869 9.39393 4.92515 9.70257 5.15023 9.93013C5.37531 10.1577 5.68059 10.2855 5.99891 10.2855H22.802C23.0389 10.2843 23.2702 10.2123 23.4667 10.0784C23.6632 9.9445 23.8161 9.75481 23.9062 9.53321C23.9981 9.31223 24.0232 9.06868 23.9783 8.83329C23.9335 8.5979 23.8207 8.38121 23.6541 8.21057ZM18.0011 12.7124H1.19804C0.961088 12.7136 0.729786 12.7857 0.533286 12.9195C0.336786 13.0534 0.183881 13.2431 0.0938406 13.4647C0.00192863 13.6857 -0.0231831 13.9292 0.021674 14.1646C0.066531 14.4 0.179347 14.6167 0.345886 14.7874L5.14676 19.6411C5.25833 19.7548 5.39108 19.8451 5.53734 19.9067C5.68359 19.9683 5.84047 20 5.99891 20C6.15736 20 6.31423 19.9683 6.46049 19.9067C6.60675 19.8451 6.73949 19.7548 6.85107 19.6411C6.96356 19.5283 7.05285 19.3941 7.11378 19.2462C7.17472 19.0983 7.20609 18.9397 7.20609 18.7795C7.20609 18.6193 7.17472 18.4607 7.11378 18.3129C7.05285 18.165 6.96356 18.0308 6.85107 17.918L4.09057 15.1392H18.0011C18.3194 15.1392 18.6247 15.0114 18.8498 14.7838C19.0749 14.5563 19.2013 14.2476 19.2013 13.9258C19.2013 13.604 19.0749 13.2954 18.8498 13.0678C18.6247 12.8402 18.3194 12.7124 18.0011 12.7124Z" fill="#ABACB2"/>
</svg>
